# xmcd
#
# Track frame offsets: 
#        150
#        20082
#        34955
#        45408
#        58434
#        73467
#        85858
#        99088
#        124106
#        136578
#        152056
#        165578
#        179524
#        190766
#        207725
#        220252
#        235715
#        250863
#
# Disc length: 3565 seconds
#
# Revision: 0
# Processed by: cddbd v1.5.2PL0 Copyright (c) Steve Scherf et al.
# Submitted via: ExactAudioCopyFreeDBPlugin 1.0
#
DISCID=030deb12
DTITLE=Various Artist - Country Original Disc1
DYEAR=1900
DGENRE=Country
TTITLE0=Kenny Rogers - Coward Of The Country
TTITLE1=Conway Twitty - I'd Lover To Lay You Down
TTITLE2=John Denver - Steel Rains
TTITLE3=George Strait - Cow Town
TTITLE4=Johnny Lee - Country Party
TTITLE5=Johnny Cash - I Walk The Line
TTITLE6=Don Williams - Lay Down Beside Me
TTITLE7=Alison Krauss and Shawn Colvin - The Boxer
TTITLE8=Bobby Bare - 500 Miles (Away From Home)
TTITLE9=David Frizzell and Shelly West - You're The Reason God Made Okla
TTITLE9=homa
TTITLE10=Daryle Singletary - I Let Her Lie
TTITLE11=Keith Whitley - I'm Over You
TTITLE12=Kingston Trio - Long Black Veil
TTITLE13=George Goss - Ain't No Honky Tonks In Jail
TTITLE14=Gary Stewart - She's Acting Single
TTITLE15=Mel Tillis - Coca Cola Cowboy
TTITLE16=The Bellamy Brothers - Lord Help Me Be The Kind Of Person
TTITLE17=Bob Dylan and Johnny Cash - Girl From The North Country
EXTD=
EXTT0=
EXTT1=
EXTT2=
EXTT3=
EXTT4=
EXTT5=
EXTT6=
EXTT7=
EXTT8=
EXTT9=
EXTT10=
EXTT11=
EXTT12=
EXTT13=
EXTT14=
EXTT15=
EXTT16=
EXTT17=
PLAYORDER=
